<svg width="24" height="24" viewBox="0 0 24 24" fill="none" xmlns="http://www.w3.org/2000/svg">
<path d="M12 0C12.9216 5.6797e-05 13.7136 2.86412 14.0752 6.98926C17.2479 4.32788 19.8336 2.86292 20.4854 3.51465C21.137 4.16641 19.6711 6.75119 17.0098 9.92383C21.1349 10.2853 23.9992 11.0774 24 11.999C24 12.9208 21.135 13.7127 17.0088 14.0742C19.671 17.2476 21.1372 19.8335 20.4854 20.4854C19.8335 21.1369 17.248 19.6713 14.0752 17.0098C13.7136 21.1354 12.9217 23.9999 12 24C11.0783 24 10.2854 21.1355 9.92383 17.0098C6.75119 19.671 4.16641 21.137 3.51465 20.4854C2.86285 19.8336 4.32831 17.2474 6.99023 14.0742C2.86455 13.7127 -4.02901e-08 12.9208 0 11.999C0.000748967 11.0775 2.8646 10.2854 6.98926 9.92383C4.32826 6.75145 2.86312 4.16644 3.51465 3.51465C4.16634 2.86296 6.75136 4.32818 9.92383 6.98926C10.2854 2.86403 11.0783 0 12 0Z" fill="black"/>
</svg>
